<svg xmlns="http://www.w3.org/2000/svg" width="16" height="16"  xmlns:v="https://vecta.io/nano"><path d="M11.808 11.794a.64.64 0 0 0 .199-.465V4.656c0-.177-.066-.331-.199-.464s-.287-.199-.464-.199H4.672a.64.64 0 0 0-.465.199c-.132.132-.198.287-.198.464v1.34c0 .177.066.332.199.465s.287.198.464.198h2.785l-3.698 3.698a.64.64 0 0 0-.191.471.64.64 0 0 0 .191.471l.943.943a.64.64 0 0 0 .471.191.64.64 0 0 0 .471-.191l3.698-3.698v2.786a.64.64 0 0 0 .663.662h1.34c.177 0 .331-.065.464-.198zm1.849 1.863a7.83 7.83 0 0 1-3.598 2.081c-1.372.361-2.745.361-4.117 0a7.83 7.83 0 0 1-3.598-2.081 7.83 7.83 0 0 1-2.081-3.598c-.361-1.372-.361-2.745 0-4.117s1.056-2.573 2.081-3.598S4.569.623 5.942.262s2.745-.361 4.117 0 2.573 1.056 3.598 2.081 1.72 2.226 2.081 3.598.361 2.745 0 4.117a7.83 7.83 0 0 1-2.081 3.598z" fill="#77a618"/></svg>