<svg xmlns="http://www.w3.org/2000/svg" width="34" height="36" viewBox="0 0 34 36">
    <g fill="none" fill-rule="evenodd" opacity=".3">
        <g fill="#FFF" fill-rule="nonzero">
            <path d="M956.306 5786.277l1.784-1.728c.755-.732 1.977-.732 2.724 0l15.62 15.127c.755.732.755 1.916 0 2.64l-15.62 15.135c-.755.732-1.977.732-2.724 0l-1.784-1.728c-.763-.74-.747-1.947.032-2.67l9.682-8.939h-23.092c-1.068 0-1.928-.833-1.928-1.868v-2.492c0-1.035.86-1.868 1.928-1.868h23.092l-9.682-8.938c-.787-.724-.803-1.931-.032-2.67z" transform="translate(-942 -5783) rotate(90 959 5801)"/>
        </g>
    </g>
</svg>
