<svg xmlns="http://www.w3.org/2000/svg" width="150" height="152" xmlns:v="https://vecta.io/nano"><path d="M149.322 115.603a2.24 2.24 0 0 1-.247 1.914h0l-21.453 33.348c-.4.624-1.088 1-1.83 1.027s-1.446-.338-1.878-.945h0L102.97 121.47c-.722-1.018-.483-2.414.523-3.133a2.24 2.24 0 0 1 3.126.53h0l17.097 24.063.048-1.03c1.77-40.2-8.346-72.545-30.067-96.153C58.212 7.177 3.338 5.217 2.79 5.203 1.547 5.168.574 4.127.615 2.88a2.26 2.26 0 0 1 .195-.853C1.173 1.212 1.997.654 2.94.68c.57.015 57.323 2.044 94.072 41.988 22.467 24.414 32.98 57.673 31.27 98.868l17.023-26.46a2.24 2.24 0 0 1 3.098-.666c.45.293.763.718.918 1.193z" fill="#555"/></svg>