<svg xmlns="http://www.w3.org/2000/svg" width="78" height="62"  xmlns:v="https://vecta.io/nano"><path d="M74 54H5V14.804A4.8 4.8 0 0 1 9.797 10h59.406A4.8 4.8 0 0 1 74 14.804V54z" fill="#b5adb6"/><path d="M68.5 10H64c2.485 0 4.5 2.079 4.5 4.644V52H73V14.644C73 12.079 70.985 10 68.5 10h0z" fill="#a79ba7"/><path d="M10 53V16.575A1.57 1.57 0 0 1 11.565 15h55.87A1.57 1.57 0 0 1 69 16.575V53H10z" fill="#d8ecfe"/><path d="M73.292 62H4.708C2.108 62 0 59.985 0 57.5v-3.3c0-.663.562-1.2 1.255-1.2h75.489c.693 0 1.255.537 1.255 1.2v3.3c0 2.485-2.108 4.5-4.708 4.5h0z" fill="#a79ba7"/><path d="M76.751 53h-3.436c0 3.728-3.147 6.75-7.029 6.75H1C1.81 61.095 3.323 62 5.057 62h68.257C75.902 62 78 59.985 78 57.5v-3.3c0-.663-.559-1.2-1.249-1.2h0zm-32.203 4H34.452c-.738 0-1.413-.464-1.742-1.198L31 52h17l-1.709 3.802c-.33.734-1.005 1.198-1.743 1.198h0z" fill="#918291"/><path d="M24.098 34h29.804c3.144 0 5.113-3.378 3.551-6.09L42.551 2.046c-1.572-2.728-5.529-2.728-7.101 0L20.547 27.91c-1.563 2.712.407 6.09 3.551 6.09z" fill="#fd4755"/><path d="M39.863 23.877c.376 0 .729.099 1.024.265-.495.276-.826.74-.826 1.254s.325.971.819 1.241a2.11 2.11 0 0 1-1.017.258c-1.027 0-1.863-.673-1.863-1.499s.853-1.519 1.863-1.519zm0-12.877c.376 0 .733.078 1.027.205-.452.202-.721.525-.721.834h0v8.473c0 .369.274.669.724.846a2.88 2.88 0 0 1-1.03.173c-1.033 0-1.754-.419-1.754-1.019h0v-8.473c0-.502.705-1.039 1.754-1.039z" fill="#fff"/><path d="M57.462 27.91L42.805 2.045c-1.336-2.357-4.422-2.676-6.234-.96l5.398 9.525c5.304 9.361-1.381 21.02-12.053 21.02H21c.621 1.359 1.965 2.37 3.655 2.37H53.97c3.092 0 5.029-3.378 3.492-6.09z" fill="#fb2b3a"/></svg>