<svg xmlns="http://www.w3.org/2000/svg" width="18" height="20" viewBox="0 0 18 20">
    <g fill="none" fill-rule="evenodd" opacity=".5">
        <g fill="#FFF" fill-rule="nonzero">
            <g>
                <g>
                    <path d="M17.554 8.75h-.964V5.937C16.59 2.664 13.85 0 10.483 0S4.375 2.664 4.375 5.938V8.75h-.964c-1.065 0-1.928.84-1.928 1.875v7.5C1.483 19.16 2.346 20 3.41 20h14.143c1.065 0 1.929-.84 1.929-1.875v-7.5c0-1.035-.864-1.875-1.929-1.875zm-5.071 6.375c0 1.036-.895 1.875-2 1.875s-2-.84-2-1.875v-1.25c0-1.036.895-1.875 2-1.875s2 .84 2 1.875v1.25zm1-6.125h-6V6c0-1.654 1.345-3 3-3 1.654 0 3 1.346 3 3v3z" transform="translate(-715 -12593) translate(548 12580) translate(165.517 13)"/>
                </g>
            </g>
        </g>
    </g>
</svg>
