<svg width="18" height="18" xmlns="http://www.w3.org/2000/svg"><g fill="#FFF" fill-rule="nonzero" opacity=".5"><path d="M15.885 4.2a.62.62 0 00-.162-.291L12 .185a.62.62 0 00-.31-.18.577.577 0 00-.15 0H4.092a.62.62 0 00-.62.62v3.26a4.966 4.966 0 015.698 6.995l1.905 2.16a1.869 1.869 0 11-2.793 2.482L6.42 13.381a4.966 4.966 0 01-1.707.279c-.418 0-.835-.053-1.241-.155v3.258c0 .343.278.621.62.621h11.173a.62.62 0 00.62-.62V4.35a.577.577 0 000-.15zm-1.92-.275h-2v-2l2 2z"/><path d="M4.712 4.97a3.724 3.724 0 013.724 3.724 3.687 3.687 0 01-.844 2.316l2.52 2.861a.62.62 0 01-.93.82l-2.484-2.85a3.724 3.724 0 01-1.986.578 3.724 3.724 0 010-7.448zM4.7 6.2a2.5 2.5 0 100 5 2.5 2.5 0 000-5z"/></g></svg>