<svg xmlns="http://www.w3.org/2000/svg" width="18" height="18" viewBox="0 0 18 18">
    <g fill="none" fill-rule="evenodd" opacity=".5">
        <g fill="#FFF" fill-rule="nonzero">
            <g>
                <path d="M15.354 51.176h-1.137c-.314 0-.569.254-.569.569v3.98H2.275V44.352h5.118c.314 0 .569-.255.569-.569v-1.137c0-.314-.255-.57-.57-.57H1.707c-.942 0-1.706.765-1.706 1.707v12.511C0 57.236.764 58 1.706 58h12.511c.942 0 1.706-.764 1.706-1.706v-4.55c0-.314-.255-.568-.569-.568zM17.134 40H12.52c-.77 0-1.155.934-.613 1.478l1.288 1.288-8.787 8.784c-.163.162-.254.383-.254.613 0 .23.091.45.254.613l.818.816c.162.163.383.254.613.254.23 0 .45-.091.612-.254l8.783-8.786 1.288 1.287c.54.54 1.478.162 1.478-.613v-4.615c0-.478-.387-.865-.865-.865z" transform="translate(-1204 -467) translate(1204 427)"/>
            </g>
        </g>
    </g>
</svg>
