<svg xmlns="http://www.w3.org/2000/svg" width="52" height="64"  xmlns:v="https://vecta.io/nano"><path fill="#ff6536" d="M.866 31.212s2.52 3.715 7.8 6.86c0 0-3.825-32.438 21.095-38.072-6.385 23.515 8.121 30.147 13.409 17.723 8.83 11.832 2.125 22.154 2.125 22.154 3.621.523 6.663-3.446 6.663-3.446.027.489.042.981.042 1.477C52 52.318 40.36 64 26 64S0 52.318 0 37.908c0-2.315.302-4.559.866-6.696z"/><path fill="#ff421d" d="M51.958 36.43s-3.042 3.97-6.663 3.447c0 0 6.705-10.322-2.125-22.154C37.882 30.147 23.376 23.515 29.76 0A27.94 27.94 0 0 0 26 1.127V64c14.36 0 26-11.682 26-26.092 0-.496-.015-.988-.042-1.477z"/><path fill="#fbbf00" d="M15 52.451C15 58.83 20.149 64 26.5 64S38 58.83 38 52.451a11.54 11.54 0 0 0-3.82-8.596C29.734 49.922 23.398 40.72 28.336 34 28.336 34 15 35.678 15 52.451z"/><path fill="#ffa900" d="M37 52.451c0-3.414-1.41-6.481-3.654-8.596-4.253 6.067-10.313-3.135-5.59-9.855 0 0-.693.091-1.756.444V64c6.075 0 11-5.17 11-11.549z"/></svg>