<svg xmlns="http://www.w3.org/2000/svg" width="16" height="16" viewBox="0 0 16 16">
    <g fill="none" fill-rule="evenodd" opacity=".5">
        <g fill="#FFF" fill-rule="nonzero">
            <g>
                <g>
                    <path d="M8 0C3.58 0 0 3.58 0 8s3.58 8 8 8 8-3.58 8-8-3.58-8-8-8zm2.832 10.77l-.658.822c-.087.109-.214.179-.353.194-.139.016-.278-.025-.387-.112L7.23 10.04c-.312-.25-.493-.628-.493-1.028V3.895c0-.29.235-.527.526-.527h1.053c.29 0 .526.236.526.527V8.63l1.908 1.398c.109.088.179.215.194.354.016.138-.025.278-.112.387z" transform="translate(-1207 -387) translate(1207 381) translate(0 6)"/>
                </g>
            </g>
        </g>
    </g>
</svg>
