<svg xmlns="http://www.w3.org/2000/svg" width="44" height="38"  xmlns:v="https://vecta.io/nano"><path d="M40.556 38H3.444C.79 38-.865 35.173.475 32.918L19.031 1.676c1.326-2.232 4.61-2.236 5.939 0l18.556 31.242C44.864 35.171 43.213 38 40.556 38z" fill="#ff6b6b"/><path d="M21.553 3.252L3.072 34.238c-.202.339.046.762.447.762h36.962c.401 0 .65-.423.447-.762L22.447 3.252c-.2-.335-.693-.337-.894 0z" fill="#ee5253"/><path d="M22.509 27.911c.788 0 1.454.696 1.454 1.519 0 .813-.666 1.499-1.454 1.499-.811 0-1.471-.673-1.471-1.499s.673-1.519 1.471-1.519zm0-2.345c-.816 0-1.385-.419-1.385-1.019v-8.473c0-.502.557-1.039 1.385-1.039.747 0 1.402.486 1.402 1.039v8.473c0 .59-.59 1.019-1.402 1.019z" fill="#e4eaf8"/><path d="M2.256 32.918L20.906 1.676A3.41 3.41 0 0 1 23 .112c-1.455-.372-3.053.189-3.874 1.564L.477 32.918C-.868 35.171.791 38 3.461 38h1.78c-2.667 0-4.33-2.828-2.984-5.082z" fill="#ee5253"/><path d="M4.846 34.238L23 3.981l-.437-.729a.53.53 0 0 0-.9 0L3.072 34.238c-.203.339.046.762.45.762h1.774c-.403 0-.654-.423-.45-.762z" fill="#e24951"/><path d="M22.911 27.911c.376 0 .729.099 1.024.265-.495.276-.827.74-.827 1.254s.325.971.819 1.241a2.11 2.11 0 0 1-1.017.258c-1.027 0-1.863-.673-1.863-1.499s.853-1.519 1.863-1.519zm0-12.877c.376 0 .733.078 1.027.205-.452.202-.721.525-.721.834h0v8.473c0 .369.274.669.724.846a2.88 2.88 0 0 1-1.03.173c-1.033 0-1.754-.419-1.754-1.019h0v-8.473c0-.502.705-1.039 1.754-1.039z" fill="#fff"/></svg>