<svg xmlns="http://www.w3.org/2000/svg" width="15" height="20" viewBox="0 0 15 20">
    <g fill="none" fill-rule="evenodd" opacity=".5">
        <g fill="#FFF" fill-rule="nonzero">
            <g>
                <path d="M6.73 19.596C1.053 11.368 0 10.524 0 7.5 0 3.358 3.358 0 7.5 0 11.642 0 15 3.358 15 7.5c0 3.024-1.054 3.868-6.73 12.096-.372.539-1.168.538-1.54 0zm.77-8.971c1.726 0 3.125-1.4 3.125-3.125 0-1.726-1.4-3.125-3.125-3.125-1.726 0-3.125 1.4-3.125 3.125 0 1.726 1.4 3.125 3.125 3.125z" transform="translate(-1206 -413) translate(1206 413)"/>
            </g>
        </g>
    </g>
</svg>
