<svg xmlns="http://www.w3.org/2000/svg" width="33" height="52"  xmlns:v="https://vecta.io/nano"><path fill="#feeb70" d="M23.916 42H9.084c-.879 0-1.59-.687-1.59-1.535v-2.199C2.848 35.34 0 30.307 0 24.923 0 16.143 7.402 9 16.5 9S33 16.143 33 24.923c0 5.385-2.849 10.417-7.494 13.344v2.198c0 .848-.712 1.535-1.59 1.535z"/><path fill="#fef7cb" d="M21 26.51c0-.834-.691-1.51-1.543-1.51s-1.544.676-1.544 1.51c0 1.034-.858 1.874-1.913 1.874s-1.913-.84-1.913-1.873c0-.835-.691-1.511-1.544-1.511S11 25.676 11 26.51c0 2.173 1.453 4.018 3.457 4.656v9.323c0 .835.69 1.511 1.543 1.511s1.543-.676 1.543-1.51v-9.324C19.547 30.528 21 28.683 21 26.511z"/><path fill="#18a7fc" d="M17 52c-4.963 0-9-3.886-9-8.662V40.53c0-.845.712-1.53 1.59-1.53h14.82c.878 0 1.59.685 1.59 1.53v2.808C26 48.114 21.963 52 17 52z"/><path d="M16.367 5.94c-.853 0-1.544-.708-1.544-1.582V1.582c0-.874.691-1.582 1.544-1.582s1.545.708 1.545 1.582v2.776c0 .874-.692 1.582-1.545 1.582zm-5.79.965c-.624 0-1.211-.39-1.445-1.023l-.959-2.597c-.301-.817.101-1.73.9-2.039s1.689.103 1.99.92l.959 2.598c.302.817-.1 1.73-.899 2.038a1.5 1.5 0 0 1-.546.103z" fill="#feeb70"/><path d="M22.173 6.705a1.68 1.68 0 0 1-.572-.1c-.836-.3-1.258-1.186-.942-1.98l1.005-2.521c.316-.794 1.25-1.194 2.086-.894s1.258 1.186.942 1.98l-1.005 2.52c-.244.615-.86.994-1.514.994zM16.106 0v5.767c.894 0 1.619-.687 1.619-1.535V1.536C17.725.688 17 0 16.106 0zm0 8.941v33.02h7.547c.894 0 1.619-.687 1.619-1.535v-2.2c4.727-2.929 7.626-7.964 7.626-13.352 0-8.785-7.532-15.933-16.792-15.933z" fill="#fcb629"/><path fill="#feeb70" d="M19.457 25c-.853 0-1.544.676-1.544 1.51 0 1.034-.858 1.874-1.913 1.874V42c.852 0 1.543-.676 1.543-1.51v-9.324C19.547 30.528 21 28.683 21 26.51c0-.835-.691-1.511-1.543-1.511z"/><path fill="#0074f0" d="M24.41 39H17v13c4.963 0 9-3.886 9-8.662V40.53c0-.845-.711-1.53-1.59-1.53z"/></svg>